<svg xmlns="http://www.w3.org/2000/svg" id="block" viewBox="0 0 36 36"><defs><style>.cls-1{fill:#fff}.cls-2{fill:#3c3c3b}</style></defs><circle cx="18" cy="18" r="12" class="cls-1"/><polygon points="12.98 23.2 10.7 16.68 17.42 17.87 19.8 24.4 12.98 23.2" class="cls-1"/><path d="M11.45,17.32l5.6,1,2,5.44-5.67-1-1.91-5.43M9.94,16l2.67,7.6L20.45,25l.07-.08-2.73-7.52L9.94,16Z" class="cls-2"/><polygon points="18.16 16.98 10.88 15.7 15.21 10.54 22.52 11.83 25.05 18.8 20.71 23.98 18.16 16.98" class="cls-2"/><path d="M15.41,11.09l6.73,1.18,2.34,6.43L20.88,23l-2.15-5.91-.2-.54-.57-.1-6.14-1.08,3.59-4.27M15,10,9.94,16l7.85,1.38,2.73,7.52-.07.08-7.84-1.38L20.48,25l5.14-6.13-2.73-7.51L15,10Z" class="cls-2"/></svg>