<svg id="bulb_yellow" xmlns="http://www.w3.org/2000/svg" xmlns:xlink="http://www.w3.org/1999/xlink" viewBox="0 0 36 36"><defs><style>.cls-1{opacity:0.4;fill:url(#Unbenannter_Verlauf_17);}.cls-2,.cls-3{fill:#ffed00;}.cls-2{opacity:0.6;}</style><radialGradient id="Unbenannter_Verlauf_17" cx="18" cy="18" r="15.29" gradientUnits="userSpaceOnUse"><stop offset="0.85" stop-color="#ffed00"/><stop offset="1" stop-color="#ffed00" stop-opacity="0"/></radialGradient></defs><path class="cls-1" d="M27.47,6A15.28,15.28,0,0,0,4.26,24.7l2.25-2.25a1.07,1.07,0,0,1,1.52,0L13.55,28a1.06,1.06,0,0,1,0,1.51L11.3,31.74A15.29,15.29,0,0,0,27.47,6Z"/><path class="cls-2" d="M16.67,25.36a8.78,8.78,0,0,1-1-.21c-.5-.13-.62.09-.62.09s-.55.56-.67.67a.43.43,0,0,1-.69,0l-3.55-3.55a.44.44,0,0,1,0-.7c.11-.12.65-.65.65-.65a.78.78,0,0,0,.12-.77,7.16,7.16,0,0,1-.19-.8,7.86,7.86,0,1,1,6,5.94Z"/><path class="cls-3" d="M9.07,23.1a1,1,0,0,0-1.35,1.38l3.79,3.8a1,1,0,0,0,1.38-1.35Z"/><path class="cls-3" d="M7.16,25A1,1,0,0,0,5.81,26.4L9.6,30.19A1,1,0,0,0,11,28.84Z"/><path class="cls-3" d="M5.86,27.59c-.26-.25-.42-.48-.67-.22a.66.66,0,0,0,0,.92l2.53,2.52a.63.63,0,0,0,.9,0c.25-.26,0-.43-.23-.68Z"/><path class="cls-3" d="M17.89,21.68a2.53,2.53,0,1,0-3.83-.32l-2.81,2.81.58.58,2.81-2.81A2.51,2.51,0,0,0,17.89,21.68Zm-3-.59a1.7,1.7,0,1,1,2.41,0A1.7,1.7,0,0,1,14.9,21.09Z"/><path class="cls-3" d="M24.31,11.69a8.45,8.45,0,0,0-14.13,8.22.78.78,0,0,1-.13.9l-.69.68a.7.7,0,0,0,0,1l4.16,4.16a.69.69,0,0,0,1,0l.67-.68a.72.72,0,0,1,.82-.16,8.45,8.45,0,0,0,8.31-14.1ZM16.67,25.36c-.29-.05-.74-.14-1-.22-.49-.13-.61.09-.61.09l-.67.68a.43.43,0,0,1-.69,0l-3.55-3.55c-.23-.23-.27-.46,0-.69l.66-.66a.77.77,0,0,0,.11-.77c-.06-.23-.14-.56-.18-.79a7.86,7.86,0,1,1,6,5.94Z"/></svg>