<svg id="bulb_gray" xmlns="http://www.w3.org/2000/svg" viewBox="0 0 36 36"><defs><style>.cls-1{fill:#1d1d1b;opacity:0.6;}.cls-2{fill:#9d9d9c;}.cls-3{fill:#ededed;}</style></defs><path class="cls-1" d="M16.69,25.29a9.23,9.23,0,0,1-1-.21c-.5-.13-.62.09-.62.09l-.66.67a.43.43,0,0,1-.69,0l-3.55-3.55c-.23-.23-.28-.47-.05-.7s.65-.65.65-.65a.76.76,0,0,0,.12-.77c-.06-.23-.14-.56-.19-.8a7.86,7.86,0,1,1,6,5.94Z"/><path class="cls-2" d="M9.05,23.09A1,1,0,0,0,7.7,24.47l3.79,3.79a1,1,0,0,0,1.38-1.35Z"/><path class="cls-2" d="M7.14,25a1,1,0,0,0-1.35,1.38l3.79,3.79A1,1,0,0,0,11,28.82Z"/><path class="cls-2" d="M5.84,27.57c-.26-.25-.42-.47-.67-.22a.66.66,0,0,0,0,.92l2.53,2.52a.63.63,0,0,0,.9,0c.26-.25,0-.42-.23-.68Z"/><path class="cls-3" d="M20.67,7.22a.49.49,0,0,0,.37.16h1.69v0L20.9,9.65a8.37,8.37,0,0,1,2.72,1.53h.46a.52.52,0,0,0,.37-.16.51.51,0,0,0,.16-.38.46.46,0,0,0-.16-.36.49.49,0,0,0-.37-.16H22.39v0l1.89-2.3a1.47,1.47,0,0,0,.33-.93.51.51,0,0,0-.16-.38.52.52,0,0,0-.37-.16H21a.52.52,0,0,0-.37.16.51.51,0,0,0-.16.38A.46.46,0,0,0,20.67,7.22Z"/><path class="cls-2" d="M17.87,21.66A2.52,2.52,0,1,0,14,21.34l-2.81,2.81.58.58,2.81-2.8A2.52,2.52,0,0,0,17.87,21.66Zm-3-.58a1.7,1.7,0,1,1,2.41,0A1.71,1.71,0,0,1,14.88,21.08Z"/><path class="cls-2" d="M24.29,11.67A8.45,8.45,0,0,0,10.17,19.9a.78.78,0,0,1-.14.89l-.68.69a.68.68,0,0,0,0,1l4.16,4.16a.7.7,0,0,0,1,0l.68-.69a.7.7,0,0,1,.81-.16,8.45,8.45,0,0,0,8.31-14.1ZM16.65,25.34a9.46,9.46,0,0,1-1-.22c-.49-.12-.61.09-.61.09s-.55.57-.67.68a.43.43,0,0,1-.69,0L10.1,22.32a.44.44,0,0,1,0-.7c.11-.12.65-.65.65-.65a.78.78,0,0,0,.12-.77c-.07-.24-.15-.57-.19-.8a7.86,7.86,0,1,1,6,5.94Z"/><path class="cls-3" d="M20.25,16.77l2.57-3.14v0h-2.3a.73.73,0,0,1-.51-.21.67.67,0,0,1-.21-.5.72.72,0,0,1,.72-.72h4.14a.72.72,0,0,1,.72.72,2,2,0,0,1-.45,1.27l-2.57,3.14v0a0,0,0,0,0,0,0h2.29a.73.73,0,0,1,.51.21.73.73,0,0,1-.51,1.23H20.52a.7.7,0,0,1-.51-.22.69.69,0,0,1-.21-.5A2,2,0,0,1,20.25,16.77Z"/><path class="cls-3" d="M25.69,13.89l2.13-2.61v0H25.91a.61.61,0,0,1-.42-.17.6.6,0,0,1,.42-1h3.44a.58.58,0,0,1,.43.18.58.58,0,0,1,.18.42,1.66,1.66,0,0,1-.38,1.06l-2.14,2.6v0h1.9a.57.57,0,0,1,.43.17A.56.56,0,0,1,30,15a.58.58,0,0,1-.18.42.58.58,0,0,1-.43.18H25.91a.62.62,0,0,1-.6-.6A1.64,1.64,0,0,1,25.69,13.89Z"/></svg>