<svg id="Ebene_1" data-name="Ebene 1" xmlns="http://www.w3.org/2000/svg" viewBox="0 0 768 295"><defs><style>.cls-1{opacity:0.5;}.cls-2{opacity:0.35;}.cls-3{fill:#f96943;fill-opacity:0.35;stroke-opacity:0.5;stroke-width:0.56px;}.cls-3,.cls-5{stroke:#fff;stroke-miterlimit:10;}.cls-4{opacity:0.4;}.cls-5{fill:#fff;stroke-width:0.3px;}</style></defs><g class="cls-1"><g class="cls-2"><polygon class="cls-3" points="44.68 262.6 44.68 295 44.68 295 44.68 262.6"/><polygon class="cls-3" points="44.68 262.6 0.1 295 81.97 295 44.68 262.6"/><polygon class="cls-3" points="44.68 262.6 81.97 295 99.3 240.37 44.68 262.6"/><polygon class="cls-3" points="99.3 240.37 81.97 295 123.79 253.56 99.3 240.37"/><polygon class="cls-3" points="81.97 295 119.27 295 123.79 253.56 81.97 295"/><polygon class="cls-3" points="123.79 253.56 119.27 295 156.94 295 123.79 253.56"/><polygon class="cls-3" points="156.94 295 194.24 295 214.21 240.37 156.94 295"/><polygon class="cls-3" points="136.98 217.77 123.79 253.56 214.21 240.37 136.98 217.77"/><polygon class="cls-3" points="123.79 253.56 156.94 295 214.21 240.37 123.79 253.56"/><polygon class="cls-3" points="214.21 240.37 194.24 295 231.92 295 214.21 240.37"/><polygon class="cls-3" points="214.21 240.37 231.92 295 259.42 255.44 214.21 240.37"/><polygon class="cls-3" points="259.42 255.44 231.92 295 269.21 295 259.42 255.44"/><polygon class="cls-3" points="272.6 200.82 259.42 255.44 276.37 206.47 272.6 200.82"/><polygon class="cls-3" points="240.58 181.98 214.21 240.37 272.6 200.82 240.58 181.98"/><polygon class="cls-3" points="214.21 240.37 259.42 255.44 272.6 200.82 214.21 240.37"/><polygon class="cls-3" points="272.6 200.82 276.37 206.47 310.28 195.16 272.6 200.82"/><polygon class="cls-3" points="259.42 255.44 269.21 295 306.89 295 259.42 255.44"/><polygon class="cls-3" points="276.37 206.47 259.42 255.44 310.28 195.16 276.37 206.47"/><polygon class="cls-3" points="259.42 255.44 306.89 295 310.28 195.16 259.42 255.44"/><polygon class="cls-3" points="310.28 195.16 306.89 295 353.6 219.65 310.28 195.16"/><polygon class="cls-3" points="306.89 295 344.19 295 353.6 219.65 306.89 295"/><polygon class="cls-3" points="310.28 195.16 353.6 219.65 359.25 165.03 310.28 195.16"/><polygon class="cls-3" points="359.25 165.03 353.6 219.65 379.98 183.86 359.25 165.03"/><polygon class="cls-3" points="353.6 219.65 344.19 295 381.86 295 353.6 219.65"/><polygon class="cls-3" points="379.98 183.86 353.6 219.65 440.25 223.42 379.98 183.86"/><polygon class="cls-3" points="353.6 219.65 381.86 295 440.25 223.42 353.6 219.65"/><polygon class="cls-3" points="381.86 295 419.16 295 440.25 223.42 381.86 295"/><polygon class="cls-3" points="440.25 223.42 419.16 295 451.56 274.28 440.25 223.42"/><polygon class="cls-3" points="451.56 274.28 419.16 295 456.45 295 451.56 274.28"/><polygon class="cls-3" points="440.25 223.42 451.56 274.28 472.28 230.96 440.25 223.42"/><polygon class="cls-3" points="427.07 108.51 379.98 183.86 440.25 223.42 427.07 108.51"/><polygon class="cls-3" points="451.56 274.28 456.45 295 494.13 295 451.56 274.28"/><polygon class="cls-3" points="472.28 230.96 451.56 274.28 494.13 295 472.28 230.96"/><polygon class="cls-3" points="427.07 108.51 440.25 223.42 526.9 181.98 427.07 108.51"/><polygon class="cls-3" points="440.25 223.42 472.28 230.96 526.9 181.98 440.25 223.42"/><polygon class="cls-3" points="526.9 181.98 472.28 230.96 541.97 193.28 526.9 181.98"/><polygon class="cls-3" points="541.97 193.28 472.28 230.96 557.04 217.77 541.97 193.28"/><polygon class="cls-3" points="472.28 230.96 494.13 295 531.42 295 472.28 230.96"/><polygon class="cls-3" points="475.38 93.78 526.9 181.98 560.81 136.77 475.38 93.78"/><polygon class="cls-3" points="472.28 230.96 531.42 295 557.04 217.77 472.28 230.96"/><polygon class="cls-3" points="531.42 295 569.1 295 570.23 283.7 531.42 295"/><polygon class="cls-3" points="550.2 86.07 560.81 136.77 572.11 123.58 550.2 86.07"/><polygon class="cls-3" points="526.9 181.98 541.97 193.28 560.81 136.77 526.9 181.98"/><polygon class="cls-3" points="541.97 193.28 557.04 217.77 581.53 191.4 541.97 193.28"/><polygon class="cls-3" points="560.81 136.77 541.97 193.28 581.53 191.4 560.81 136.77"/><polygon class="cls-3" points="557.04 217.77 531.42 295 570.23 283.7 557.04 217.77"/><polygon class="cls-3" points="581.53 191.4 557.04 217.77 602.25 202.7 581.53 191.4"/><polygon class="cls-3" points="570.23 283.7 569.1 295 606.4 295 570.23 283.7"/><polygon class="cls-3" points="557.04 217.77 570.23 283.7 626.74 229.07 557.04 217.77"/><polygon class="cls-3" points="602.25 202.7 557.04 217.77 626.74 229.07 602.25 202.7"/><polygon class="cls-3" points="606.02 76.49 572.11 123.58 630.51 93.44 606.02 76.49"/><polygon class="cls-3" points="570.23 283.7 606.4 295 626.74 229.07 570.23 283.7"/><polygon class="cls-3" points="572.11 123.58 560.81 136.77 581.53 191.4 572.11 123.58"/><polygon class="cls-3" points="626.74 229.07 606.4 295 644.07 295 626.74 229.07"/><polygon class="cls-3" points="572.11 123.58 581.53 191.4 602.25 202.7 572.11 123.58"/><polygon class="cls-3" points="602.25 202.7 626.74 229.07 677.6 176.33 602.25 202.7"/><polygon class="cls-3" points="572.11 123.58 602.25 202.7 630.51 93.44 572.11 123.58"/><polygon class="cls-3" points="626.74 229.07 644.07 295 666.3 289.35 626.74 229.07"/><polygon class="cls-3" points="626.74 229.07 675.72 234.72 683.25 185.75 626.74 229.07"/><polygon class="cls-3" points="677.6 176.33 626.74 229.07 683.25 185.75 677.6 176.33"/><polygon class="cls-3" points="630.51 93.44 602.25 202.7 677.6 176.33 630.51 93.44"/><polygon class="cls-3" points="626.74 229.07 666.3 289.35 675.72 234.72 626.74 229.07"/><polygon class="cls-3" points="675.72 234.72 666.3 289.35 681.37 295 675.72 234.72"/><polygon class="cls-3" points="666.3 289.35 644.07 295 681.37 295 666.3 289.35"/><polygon class="cls-3" points="683.25 185.75 675.72 234.72 720.92 230.96 683.25 185.75"/><polygon class="cls-3" points="649.35 74.61 630.51 93.44 677.6 176.33 649.35 74.61"/><polygon class="cls-3" points="675.72 234.72 719.04 295 720.92 230.96 675.72 234.72"/><polygon class="cls-3" points="675.72 234.72 681.37 295 719.04 295 675.72 234.72"/><polygon class="cls-3" points="747.3 53.89 655 67.07 751.06 82.14 747.3 53.89"/><polygon class="cls-3" points="655 67.07 649.35 74.61 751.06 82.14 655 67.07"/><polygon class="cls-3" points="649.35 74.61 677.6 176.33 751.06 82.14 649.35 74.61"/><polygon class="cls-3" points="720.92 230.96 768.02 225.3 768.02 187.63 720.92 230.96"/><polygon class="cls-3" points="683.25 185.75 720.92 230.96 768.02 187.63 683.25 185.75"/><polygon class="cls-3" points="683.25 185.75 768.02 187.63 768.02 150.33 683.25 185.75"/><polygon class="cls-3" points="677.6 176.33 683.25 185.75 768.02 150.33 677.6 176.33"/><polygon class="cls-3" points="720.92 25.63 747.3 53.89 768.02 37.69 720.92 25.63"/><polygon class="cls-3" points="768.02 37.69 747.3 53.89 768.02 75.36 768.02 37.69"/><polygon class="cls-3" points="747.3 53.89 751.06 82.14 768.02 75.36 747.3 53.89"/><polygon class="cls-3" points="677.6 176.33 768.02 150.33 768.02 112.66 677.6 176.33"/><polygon class="cls-3" points="751.06 82.14 677.6 176.33 768.02 112.66 751.06 82.14"/><polygon class="cls-3" points="768.02 75.36 751.06 82.14 768.02 112.66 768.02 75.36"/><polygon class="cls-3" points="719.04 295 756.34 295 768.02 262.6 719.04 295"/><polygon class="cls-3" points="720.92 230.96 719.04 295 768.02 262.6 720.92 230.96"/><polygon class="cls-3" points="768.02 225.3 720.92 230.96 768.02 262.6 768.02 225.3"/><polygon class="cls-3" points="768.02 262.6 756.34 295 768.02 295 768.02 262.6"/><polygon class="cls-3" points="720.92 25.63 768.02 37.69 768.02 0.39 720.92 25.63"/></g><g class="cls-4"><circle class="cls-5" cx="649.34" cy="74.61" r="2.66"/><circle class="cls-5" cx="605.77" cy="76.52" r="2.66"/><circle class="cls-5" cx="630.46" cy="93.42" r="2.66"/><circle class="cls-5" cx="572.35" cy="122.75" r="2.66"/><circle class="cls-5" cx="550.04" cy="86.02" r="2.66"/><circle class="cls-5" cx="560.66" cy="136.28" r="2.66"/><circle class="cls-5" cx="677.54" cy="176.06" r="2.66"/><circle class="cls-5" cx="683.35" cy="185.84" r="2.66"/><circle class="cls-5" cx="720.83" cy="230.61" r="2.66"/><circle class="cls-5" cx="675.76" cy="234.28" r="2.66"/><circle class="cls-5" cx="602.25" cy="202.7" r="2.66"/><circle class="cls-5" cx="626.48" cy="228.74" r="2.66"/><circle class="cls-5" cx="556.96" cy="217.59" r="2.66"/><circle class="cls-5" cx="581.62" cy="191.46" r="2.66"/><circle class="cls-5" cx="541.88" cy="193.21" r="2.66"/><circle class="cls-5" cx="472.14" cy="231.15" r="2.66"/><circle class="cls-5" cx="526.61" cy="181.22" r="2.66"/><circle class="cls-5" cx="475.4" cy="93.71" r="2.66"/><circle class="cls-5" cx="427.21" cy="108.43" r="2.66"/><circle class="cls-5" cx="440.43" cy="222.8" r="2.66"/><circle class="cls-5" cx="380.21" cy="183.78" r="2.66"/><circle class="cls-5" cx="353.46" cy="219.74" r="2.66"/><circle class="cls-5" cx="359.29" cy="164.92" r="2.66"/><circle class="cls-5" cx="310.28" cy="195.48" r="2.66"/><circle class="cls-5" cx="276.5" cy="206.44" r="2.66"/><circle class="cls-5" cx="272.6" cy="200.82" r="2.66"/><circle class="cls-5" cx="241" cy="181.98" r="2.66"/><circle class="cls-5" cx="259.47" cy="255.16" r="2.66"/><circle class="cls-5" cx="214.27" cy="240.11" r="2.66"/><circle class="cls-5" cx="137.01" cy="217.62" r="2.66"/><circle class="cls-5" cx="123.7" cy="253.41" r="2.66"/><circle class="cls-5" cx="99.2" cy="240.14" r="2.66"/><circle class="cls-5" cx="44.34" cy="262.52" r="2.66"/><circle class="cls-5" cx="654.92" cy="67.08" r="2.66"/><circle class="cls-5" cx="720.91" cy="25.85" r="2.66"/></g></g></svg>