<svg xmlns="http://www.w3.org/2000/svg" xmlns:xlink="http://www.w3.org/1999/xlink" id="Ebene_1" data-name="Ebene 1" viewBox="0 0 180 390"><defs><style>.cls-1{opacity:.5}.cls-2,.cls-3{opacity:.6}.cls-2{fill:url(#Unbenannter_Verlauf_20)}.cls-3{fill:url(#Unbenannter_Verlauf_20-2)}.cls-4{fill:#fff;opacity:.25}</style><linearGradient id="Unbenannter_Verlauf_20" x1="-.09" x2="178.33" y1="245.48" y2="245.48" gradientUnits="userSpaceOnUse"><stop offset=".2" stop-color="#f96943"/><stop offset=".78" stop-color="#ce4e2c" stop-opacity=".7"/><stop offset=".99" stop-color="#706f6f"/></linearGradient><linearGradient id="Unbenannter_Verlauf_20-2" x1="-.09" x2="58.73" y1="45.12" y2="45.12" xlink:href="#Unbenannter_Verlauf_20"/></defs><g class="cls-1"><path d="M137.84,302.37,67.23,351.81l53.93,37.76H168.6a10.63,10.63,0,0,0,4-.75,8.93,8.93,0,0,0,2.75-1.57l0,0a7.29,7.29,0,0,0,2.84-5.64V330.67ZM-.09,205.79v80.66l57.6-40.33Zm137.93-104.4L67.23,150.83l63.21,44.23,23-16.11a.29.29,0,0,0,.12-.1,61.11,61.11,0,0,0,24.76-49.13Z" class="cls-2"/><polygon points="58.73 45.13 -.09 86.31 -.09 3.94 58.73 45.13" class="cls-3"/><path d="M178.59,129.72v130.7L-.09,385.53V286.64L153.71,179l.12-.09A61.11,61.11,0,0,0,178.59,129.72Z" class="cls-4"/><path d="M179.63,7.8V59.44L-.09,185.27V86.37l58.9-41.24L121.32,1.36h49.15C175,1.47,178.79,4.21,179.63,7.8Z" class="cls-4"/></g></svg>