<svg xmlns="http://www.w3.org/2000/svg" id="fav_yellow" width="36" height="36" viewBox="0 0 36 36"><defs><style>.cls-1{fill:#ffed00}</style></defs><path d="M17.5,26l-5.45,2.86a1.06,1.06,0,0,1-1.55-1.12l1-6.07a1.08,1.08,0,0,0-.31-1l-4.41-4.3a1.07,1.07,0,0,1,.6-1.82l6.09-.89a1.09,1.09,0,0,0,.81-.58L17,7.61a1.07,1.07,0,0,1,1.92,0l2.72,5.52a1.09,1.09,0,0,0,.81.58l6.09.89a1.07,1.07,0,0,1,.6,1.82l-4.41,4.3a1.08,1.08,0,0,0-.31,1l1,6.07A1.06,1.06,0,0,1,24,28.86L18.5,26A1.1,1.1,0,0,0,17.5,26Z" class="cls-1"/></svg>