<svg id="Ebene_1" data-name="Ebene 1" xmlns="http://www.w3.org/2000/svg" xmlns:xlink="http://www.w3.org/1999/xlink" viewBox="0 0 190 50"><defs><style>.cls-1,.cls-2{fill:none;}.cls-2,.cls-6{clip-path:url(#clip-path);}.cls-14,.cls-3{fill:#fff;}.cls-4{clip-path:url(#clip-path-4);}.cls-5{fill:#eee;}.cls-7{fill:#db4437;}.cls-8{fill:#0f9d58;}.cls-9{fill:#ffcd40;}.cls-10{fill:#f1f1f1;}.cls-11{fill:#4285f4;}.cls-12,.cls-13{fill:#212121;}.cls-12,.cls-14{fill-opacity:0.05;}.cls-13{fill-opacity:0.02;}.cls-15{fill:#231f20;fill-opacity:0.1;}.cls-16{fill:url(#radial-gradient);}</style><clipPath id="clip-path"><circle class="cls-1" cx="28.28" cy="41.21" r="18.63"/></clipPath><clipPath id="clip-path-4"><path class="cls-1" d="M6.7,6.89V41.21a3,3,0,0,0,3,2.94H46.91a2.94,2.94,0,0,0,2.94-2.94V6.89Zm26.48,7.84H23.37a2,2,0,0,1,0-3.92h9.81a2,2,0,1,1,0,3.92Z"/></clipPath><radialGradient id="radial-gradient" cx="482.32" cy="-121.9" r="223.2" gradientTransform="matrix(0.25, 0, 0, -0.25, -114, -23.75)" gradientUnits="userSpaceOnUse"><stop offset="0" stop-color="#fff" stop-opacity="0.1"/><stop offset="1" stop-color="#fff" stop-opacity="0"/></radialGradient></defs><path class="cls-3" d="M65.13,37.66a5.47,5.47,0,0,1-3.84-9.29,5.25,5.25,0,0,1,3.84-1.55,4.81,4.81,0,0,1,3.81,1.69l-.92.9a3.51,3.51,0,0,0-2.89-1.32,4,4,0,0,0-2.86,1.15,4,4,0,0,0-1.16,3,4,4,0,0,0,1.16,3,3.94,3.94,0,0,0,2.86,1.14,4.08,4.08,0,0,0,3.19-1.51l.93.93a5.19,5.19,0,0,1-1.79,1.36A5.47,5.47,0,0,1,65.13,37.66Z"/><path class="cls-3" d="M71.77,27.05v3.28l-.06,1h.06a2.3,2.3,0,0,1,.91-.86A2.6,2.6,0,0,1,74,30.09a2.53,2.53,0,0,1,2,.81,3.27,3.27,0,0,1,.69,2.18v4.34H75.39V33.28c0-1.31-.59-2-1.75-2a1.65,1.65,0,0,0-1.35.66,2.38,2.38,0,0,0-.52,1.53v3.92H70.43V27.05Z"/><path class="cls-3" d="M79.62,37.42H78.29V30.33h1.27v1.15h.06a1.8,1.8,0,0,1,.83-.95,2.41,2.41,0,0,1,1.23-.38,2.43,2.43,0,0,1,1,.18l-.5,1.24a2,2,0,0,0-.71-.1,1.74,1.74,0,0,0-1.28.57,2,2,0,0,0-.56,1.5Z"/><path class="cls-3" d="M83.73,31.17a3.73,3.73,0,0,1,5.25,0,4.1,4.1,0,0,1,0,5.41,3.73,3.73,0,0,1-5.25,0,4.07,4.07,0,0,1,0-5.41Zm1,4.57a2.25,2.25,0,0,0,3.26,0A2.87,2.87,0,0,0,88,32a2.25,2.25,0,0,0-3.26,0,2.9,2.9,0,0,0,0,3.73Z"/><path class="cls-3" d="M91.08,37.42V30.33h1.27v1h.06a2.44,2.44,0,0,1,.93-.86,2.52,2.52,0,0,1,1.26-.36,2.22,2.22,0,0,1,2.24,1.37,2.78,2.78,0,0,1,2.48-1.37,2.28,2.28,0,0,1,1.9.81,3.43,3.43,0,0,1,.63,2.18v4.34h-1.33V33.28a2.33,2.33,0,0,0-.39-1.52,1.5,1.5,0,0,0-1.19-.45,1.55,1.55,0,0,0-1.29.67,2.37,2.37,0,0,0-.52,1.52v3.92H95.8V33.28a2.33,2.33,0,0,0-.39-1.52,1.5,1.5,0,0,0-1.19-.45,1.58,1.58,0,0,0-1.3.67,2.42,2.42,0,0,0-.51,1.52v3.92Z"/><path class="cls-3" d="M106.63,37.66A3.4,3.4,0,0,1,104,36.58a3.79,3.79,0,0,1-1-2.71,3.9,3.9,0,0,1,1-2.66,3.2,3.2,0,0,1,2.5-1.12,3.31,3.31,0,0,1,2.53,1,3.93,3.93,0,0,1,1,2.75l0,.25h-5.6a2.38,2.38,0,0,0,.71,1.7,2.21,2.21,0,0,0,1.55.62,1.92,1.92,0,0,0,1.94-1.22l1.18.49a3.12,3.12,0,0,1-1.14,1.39A3.33,3.33,0,0,1,106.63,37.66ZM108.55,33a1.91,1.91,0,0,0-.56-1.16,2,2,0,0,0-1.53-.55,2,2,0,0,0-1.28.46,2.44,2.44,0,0,0-.75,1.25Z"/><path class="cls-3" d="M126.1,27.05l-2.76,10.37H122l-2.24-6.83h0l-2.23,6.83h-1.37l-2.88-10.37h1.39l2.19,8.16h.06l2.24-6.77h1.25l2.24,6.77h.06l2.07-8.16Z"/><path class="cls-3" d="M129.57,37.66A3.41,3.41,0,0,1,127,36.58a3.79,3.79,0,0,1-1-2.71,3.9,3.9,0,0,1,1-2.66,3.2,3.2,0,0,1,2.5-1.12,3.3,3.3,0,0,1,2.53,1,3.93,3.93,0,0,1,1,2.75l0,.25h-5.6a2.42,2.42,0,0,0,.71,1.7,2.21,2.21,0,0,0,1.55.62,1.92,1.92,0,0,0,1.94-1.22l1.19.49a3.21,3.21,0,0,1-1.15,1.39A3.32,3.32,0,0,1,129.57,37.66ZM131.48,33a1.91,1.91,0,0,0-.56-1.16,2,2,0,0,0-1.53-.55,2,2,0,0,0-1.28.46,2.44,2.44,0,0,0-.75,1.25Z"/><path class="cls-3" d="M137.87,37.66a3.06,3.06,0,0,1-1.46-.35,2.4,2.4,0,0,1-1-.87h-.06v1h-1.28V27.05h1.34v3.28l-.06,1h.06a2.4,2.4,0,0,1,1-.87,3.06,3.06,0,0,1,1.46-.35,3.13,3.13,0,0,1,2.37,1.09,4.13,4.13,0,0,1,0,5.39A3.13,3.13,0,0,1,137.87,37.66Zm-.22-1.22a2.13,2.13,0,0,0,1.59-.7,2.93,2.93,0,0,0,0-3.73,2.13,2.13,0,0,0-1.59-.7,2.1,2.1,0,0,0-1.6.7,3,3,0,0,0,0,3.73A2.1,2.1,0,0,0,137.65,36.44Z"/><path class="cls-3" d="M148.37,37.66a3.9,3.9,0,0,1-2.21-.74,3.45,3.45,0,0,1-1.41-2.07l1.21-.5a2.81,2.81,0,0,0,.9,1.44,2.18,2.18,0,0,0,1.51.59,2.37,2.37,0,0,0,1.48-.46,1.45,1.45,0,0,0,.62-1.23,1.59,1.59,0,0,0-.62-1.34,6.23,6.23,0,0,0-1.94-.88,5.19,5.19,0,0,1-2.09-1.12,2.37,2.37,0,0,1-.71-1.76,2.56,2.56,0,0,1,.88-1.94,3.25,3.25,0,0,1,2.31-.83,3.31,3.31,0,0,1,2.14.66,3,3,0,0,1,1.07,1.44l-1.21.51a1.89,1.89,0,0,0-.65-.92,2.06,2.06,0,0,0-1.32-.42,2.11,2.11,0,0,0-1.32.43,1.32,1.32,0,0,0-.54,1.07,1.2,1.2,0,0,0,.5,1,4.56,4.56,0,0,0,1.47.72c.51.17.94.33,1.28.48a5.54,5.54,0,0,1,1.05.62,2.42,2.42,0,0,1,.79.95,3.07,3.07,0,0,1,.27,1.33,2.79,2.79,0,0,1-.31,1.34,2.56,2.56,0,0,1-.83,1,4.11,4.11,0,0,1-1.1.52A3.93,3.93,0,0,1,148.37,37.66Z"/><path class="cls-3" d="M155.93,37.54a2.06,2.06,0,0,1-2.29-2.27V31.54H152.4V30.33h1.24V28.15H155v2.18h1.74v1.21H155v3.62c0,.78.32,1.16,1,1.16a1.58,1.58,0,0,0,.61-.11l.46,1.14A2.59,2.59,0,0,1,155.93,37.54Z"/><path class="cls-3" d="M158.54,31.17a3.72,3.72,0,0,1,5.24,0,4.07,4.07,0,0,1,0,5.41,3.72,3.72,0,0,1-5.24,0,4.07,4.07,0,0,1,0-5.41Zm1,4.57a2.25,2.25,0,0,0,3.26,0,2.87,2.87,0,0,0,0-3.73,2.25,2.25,0,0,0-3.26,0,2.87,2.87,0,0,0,0,3.73Z"/><path class="cls-3" d="M167.22,37.42h-1.34V30.33h1.28v1.15h.06a1.8,1.8,0,0,1,.83-.95,2.4,2.4,0,0,1,1.22-.38,2.45,2.45,0,0,1,1,.18l-.5,1.24a2,2,0,0,0-.71-.1,1.75,1.75,0,0,0-1.29.57,2.06,2.06,0,0,0-.55,1.5Z"/><path class="cls-3" d="M173.92,37.66a3.4,3.4,0,0,1-2.61-1.08,3.79,3.79,0,0,1-1-2.71,3.9,3.9,0,0,1,1-2.66,3.18,3.18,0,0,1,2.5-1.12,3.31,3.31,0,0,1,2.53,1,3.92,3.92,0,0,1,.94,2.75v.25h-5.61a2.43,2.43,0,0,0,.72,1.7,2.19,2.19,0,0,0,1.54.62,1.9,1.9,0,0,0,1.94-1.22l1.19.49a3.12,3.12,0,0,1-1.14,1.39A3.36,3.36,0,0,1,173.92,37.66ZM175.83,33a1.85,1.85,0,0,0-.55-1.16,2,2,0,0,0-1.53-.55,2,2,0,0,0-1.28.46,2.38,2.38,0,0,0-.75,1.25Z"/><path class="cls-3" d="M60.51,21.32l3-7.85h1.14l3,7.85H66.46l-.76-2.13H62.4l-.77,2.13Zm2.23-3.07h2.61l-1.28-3.54h0Z"/><path class="cls-3" d="M69.37,21.32,67.2,16h1.1l1.58,4.16h0L71.5,16h1.07l-2.19,5.37Z"/><path class="cls-3" d="M74.82,21.5a2.11,2.11,0,0,1-1.43-.5,1.64,1.64,0,0,1-.58-1.3,1.62,1.62,0,0,1,.68-1.38,2.81,2.81,0,0,1,1.68-.5,2.89,2.89,0,0,1,1.46.33V18a1.2,1.2,0,0,0-.41-.95,1.44,1.44,0,0,0-1-.36,1.54,1.54,0,0,0-.8.21,1.09,1.09,0,0,0-.49.57L73,17.08a2.17,2.17,0,0,1,.74-.9,2.34,2.34,0,0,1,1.44-.41,2.44,2.44,0,0,1,1.71.61,2.12,2.12,0,0,1,.68,1.7v3.24h-1v-.75h0A2,2,0,0,1,74.82,21.5Zm.16-.93a1.65,1.65,0,0,0,1.14-.46,1.45,1.45,0,0,0,.51-1.1,2,2,0,0,0-1.28-.35,1.69,1.69,0,0,0-1.11.31,1,1,0,0,0-.37.75.7.7,0,0,0,.34.62A1.27,1.27,0,0,0,75,20.57Z"/><path class="cls-3" d="M79.83,14.6a.71.71,0,1,1,.21-.5A.69.69,0,0,1,79.83,14.6Zm0,6.72h-1V16h1Z"/><path class="cls-3" d="M82.15,21.32h-1V13.47h1Z"/><path class="cls-3" d="M85,21.5a2.16,2.16,0,0,1-1.44-.5,1.75,1.75,0,0,1,.11-2.68,2.77,2.77,0,0,1,1.68-.5,2.86,2.86,0,0,1,1.45.33V18a1.2,1.2,0,0,0-.4-.95,1.44,1.44,0,0,0-1-.36,1.51,1.51,0,0,0-.79.21,1.09,1.09,0,0,0-.49.57l-.92-.39a2.14,2.14,0,0,1,.73-.9,2.4,2.4,0,0,1,1.45-.41,2.44,2.44,0,0,1,1.71.61,2.15,2.15,0,0,1,.68,1.7v3.24h-1v-.75h0A2,2,0,0,1,85,21.5Zm.16-.93a1.62,1.62,0,0,0,1.13-.46,1.45,1.45,0,0,0,.51-1.1,1.94,1.94,0,0,0-1.28-.35,1.69,1.69,0,0,0-1.11.31,1,1,0,0,0-.37.75.72.72,0,0,0,.34.62A1.33,1.33,0,0,0,85.19,20.57Z"/><path class="cls-3" d="M91.78,21.5a2.21,2.21,0,0,1-1.1-.27,1.75,1.75,0,0,1-.73-.66h0v.75h-1V13.47h1V16l0,.74h0a1.8,1.8,0,0,1,.73-.65,2.21,2.21,0,0,1,1.1-.27,2.38,2.38,0,0,1,1.8.83,2.88,2.88,0,0,1,.75,2,2.89,2.89,0,0,1-.75,2A2.38,2.38,0,0,1,91.78,21.5Zm-.17-.93A1.59,1.59,0,0,0,92.82,20a1.93,1.93,0,0,0,.5-1.41,1.92,1.92,0,0,0-.5-1.4,1.6,1.6,0,0,0-1.21-.54,1.63,1.63,0,0,0-1.21.53,2,2,0,0,0-.5,1.41,2,2,0,0,0,.5,1.42A1.62,1.62,0,0,0,91.61,20.57Z"/><path class="cls-3" d="M96.21,21.32h-1V13.47h1Z"/><path class="cls-3" d="M99.81,21.5a2.54,2.54,0,0,1-2-.82,2.86,2.86,0,0,1-.77-2.05,3,3,0,0,1,.74-2,2.4,2.4,0,0,1,1.89-.85,2.49,2.49,0,0,1,1.92.78,3,3,0,0,1,.72,2.08l0,.19H98.08a1.82,1.82,0,0,0,.54,1.28,1.65,1.65,0,0,0,1.17.47,1.44,1.44,0,0,0,1.47-.92l.9.38a2.41,2.41,0,0,1-.87,1A2.51,2.51,0,0,1,99.81,21.5ZM101.26,18a1.42,1.42,0,0,0-.42-.88,1.51,1.51,0,0,0-1.16-.42,1.44,1.44,0,0,0-1,.36,1.75,1.75,0,0,0-.56.94Z"/><path class="cls-3" d="M106.76,14.6a.67.67,0,0,1-.5.21.66.66,0,0,1-.5-.21.71.71,0,0,1,0-1,.66.66,0,0,1,.5-.21.67.67,0,0,1,.5.21.71.71,0,0,1,0,1Zm0,6.72h-1V16h1Z"/><path class="cls-3" d="M109,16v.74h0a1.74,1.74,0,0,1,.69-.65,2,2,0,0,1,1-.27,1.9,1.9,0,0,1,1.52.62,2.43,2.43,0,0,1,.53,1.64v3.29h-1V18.19c0-1-.44-1.5-1.33-1.5a1.27,1.27,0,0,0-1,.5,1.85,1.85,0,0,0-.39,1.16v3h-1V16Z"/><path class="cls-3" d="M118.76,21.41A1.57,1.57,0,0,1,117,19.69V16.87h-.94V16H117V14.3h1V16h1.32v.92H118v2.74c0,.59.24.88.73.88a1.08,1.08,0,0,0,.46-.09l.35.87A2.14,2.14,0,0,1,118.76,21.41Z"/><path class="cls-3" d="M121.38,13.47V16l0,.74h0a1.74,1.74,0,0,1,.69-.65,2,2,0,0,1,1-.27,1.9,1.9,0,0,1,1.52.62,2.43,2.43,0,0,1,.52,1.64v3.29h-1V18.19c0-1-.45-1.5-1.33-1.5a1.24,1.24,0,0,0-1,.5,1.85,1.85,0,0,0-.39,1.16v3h-1V13.47Z"/><path class="cls-3" d="M128.74,21.5a2.57,2.57,0,0,1-2-.82,2.9,2.9,0,0,1-.76-2.05,3,3,0,0,1,.74-2,2.4,2.4,0,0,1,1.89-.85,2.49,2.49,0,0,1,1.92.78,3,3,0,0,1,.71,2.08v.19H127a1.82,1.82,0,0,0,.54,1.28,1.63,1.63,0,0,0,1.17.47,1.45,1.45,0,0,0,1.47-.92l.9.38a2.48,2.48,0,0,1-.87,1A2.51,2.51,0,0,1,128.74,21.5ZM130.19,18a1.42,1.42,0,0,0-.42-.88,1.51,1.51,0,0,0-1.16-.42,1.42,1.42,0,0,0-1,.36,1.75,1.75,0,0,0-.56.94Z"/><g class="cls-4"><path class="cls-5" d="M6.7,6.89H49.85V44.15H6.7Z"/></g><g class="cls-4"><path class="cls-3" d="M33.18,10.81H23.37a2,2,0,0,0,0,3.92h9.81a2,2,0,1,0,0-3.92Z"/></g><g class="cls-4"><g class="cls-6"><path class="cls-7" d="M12.6,22.58V45.44h8.34l7.34-12.7H46.91V22.58Zm0,0V45.44h8.34l7.34-12.7H46.91V22.58Z"/><path class="cls-8" d="M9.65,59.84H27.38l8.23-8.23V45.45H20.94L9.65,26.07Zm0,0H27.38l8.23-8.23V45.45H20.94L9.65,26.07Z"/><path class="cls-9" d="M28.28,32.74l7.33,12.7-8.23,14.4H46.91V32.74Zm0,0,7.33,12.7-8.23,14.4H46.91V32.74Z"/><circle class="cls-10" cx="28.28" cy="41.21" r="8.47"/><circle class="cls-11" cx="28.28" cy="41.21" r="6.78"/></g><g class="cls-4"><path class="cls-12" d="M6.7,6.89H49.85V25.52H6.7Z"/></g><path class="cls-13" d="M6.7,25.27H49.85v.25H6.7Z"/><path class="cls-14" d="M6.7,25.52H49.85v.24H6.7Z"/><path class="cls-13" d="M33.18,14.73H23.37a2,2,0,0,1-1.95-1.84s0,.08,0,.13a2,2,0,0,0,2,2h9.81a2,2,0,0,0,2-2,.57.57,0,0,0,0-.13A2,2,0,0,1,33.18,14.73ZM6.7,6.89v.24H49.85V6.89Z"/><path class="cls-15" d="M23.37,10.81h9.81a2,2,0,0,1,2,1.84.49.49,0,0,0,0-.12,2,2,0,0,0-2-2H23.37a2,2,0,0,0-2,2s0,.08,0,.12A2,2,0,0,1,23.37,10.81Zm23.54,33.1H9.65A3,3,0,0,1,6.7,41v.24a3,3,0,0,0,3,2.94H46.91a2.94,2.94,0,0,0,2.94-2.94V41A3,3,0,0,1,46.91,43.91Z"/><path class="cls-16" d="M6.7,6.89V41.21a3,3,0,0,0,3,2.94H46.91a2.94,2.94,0,0,0,2.94-2.94V6.89Zm26.48,7.84H23.37a2,2,0,0,1,0-3.92h9.81a2,2,0,1,1,0,3.92Z"/><path class="cls-1" d="M4.74,2H51.81V49.06H4.74Z"/></g><path class="cls-3" d="M185,.75A4.26,4.26,0,0,1,189.25,5V45A4.26,4.26,0,0,1,185,49.25H5A4.26,4.26,0,0,1,.75,45V5A4.26,4.26,0,0,1,5,.75H185M185,0H5A5,5,0,0,0,0,5V45a5,5,0,0,0,5,5H185a5,5,0,0,0,5-5V5a5,5,0,0,0-5-5Z"/></svg>