<svg id="Ebene_1" data-name="Ebene 1" xmlns="http://www.w3.org/2000/svg" viewBox="0 0 50 21"><defs><style>.cls-1{fill:#f96943;}.cls-2{fill:#fff;}</style></defs><path class="cls-1" d="M44.58,2.75l-3.3,2.31-2.79-2V.77A.41.41,0,0,1,38.94.4h2.27Zm5.18,3.63L47.87,5.06,44.58,7.37l3,2.06L49.76,11ZM41.17,9.75l-1.6,1.12a2.9,2.9,0,0,0-1,1.66l2.74,1.91,3.3-2.3Zm6.7,4.69-3.29,2.31,2.52,1.76h2.21a.58.58,0,0,0,.19,0l.13-.07h0a.35.35,0,0,0,.13-.27V15.76Z"/><path class="cls-2" d="M48.61,8.68h0L38.48,15.77v4.61l11.28-7.89V6.38A2.86,2.86,0,0,1,48.61,8.68Z"/><path class="cls-2" d="M49.76.69V3.1L39.57,10.24a2.85,2.85,0,0,0-1.09,2.24V6.39L47,.39h2.3A.43.43,0,0,1,49.76.69Z"/><path class="cls-2" d="M15.42.76V18.11a.4.4,0,0,1-.1.26h0l-.11.08a.4.4,0,0,1-.15,0H12.71a.37.37,0,0,1-.36-.37V.76a.36.36,0,0,1,.36-.37h2.35A.36.36,0,0,1,15.42.76Z"/><path class="cls-2" d="M25.85,15.89H21.33a.35.35,0,0,1-.32-.29V.75a.37.37,0,0,0-.36-.37H18.29a.37.37,0,0,0-.36.37V18.12a.36.36,0,0,0,.36.36h7.56a.38.38,0,0,0,.37-.37V16.25A.37.37,0,0,0,25.85,15.89Z"/><path class="cls-2" d="M10.48,17.94,5.73,9.29a.36.36,0,0,1,0-.35l4.41-8A.36.36,0,0,0,10,.43a.33.33,0,0,0-.17,0H7.16a.36.36,0,0,0-.32.18L3.23,7.13V.75A.36.36,0,0,0,2.86.39H.52A.37.37,0,0,0,.15.75V18.12a.37.37,0,0,0,.37.36H2.86a.36.36,0,0,0,.37-.36v-4l-1.09-5,5,9.18a.37.37,0,0,0,.32.18h2.66a.37.37,0,0,0,.37-.36A.41.41,0,0,0,10.48,17.94Z"/><path class="cls-2" d="M34.71.75V2.63a.36.36,0,0,1-.37.36H29.8l1.44,1a.18.18,0,0,1,.08.15v14a.36.36,0,0,1-.37.36h-2.3a.37.37,0,0,1-.37-.36V3.36A.35.35,0,0,0,28,3h-2.7a.36.36,0,0,1-.36-.36V.75a.36.36,0,0,1,.36-.36h9.08A.36.36,0,0,1,34.71.75Z"/></svg>