<svg id="order_white" xmlns="http://www.w3.org/2000/svg" viewBox="0 0 14 36"><defs><style>.cls-1{fill:#fff;}</style></defs><path class="cls-1" d="M3.83,15.86a.74.74,0,0,0,0,1,.73.73,0,0,0,1,0l2.64-2.63a.74.74,0,0,0-1-1Z"/><path class="cls-1" d="M9.13,16.9a.73.73,0,0,0,1,0,.74.74,0,0,0,0-1L7.52,13.22a.74.74,0,0,0-1,0,.75.75,0,0,0,0,1Z"/><path class="cls-1" d="M10.17,20.14a.74.74,0,0,0,0-1,.73.73,0,0,0-1,0L6.48,21.74a.74.74,0,1,0,1,1.05Z"/><path class="cls-1" d="M4.87,19.1a.73.73,0,0,0-1,0,.74.74,0,0,0,0,1l2.64,2.63a.74.74,0,0,0,1,0,.75.75,0,0,0,0-1Z"/></svg>