<svg id="pickax_yellow" xmlns="http://www.w3.org/2000/svg" viewBox="0 0 36 36"><defs><style>.cls-1{fill:#ffed00;}</style></defs><path class="cls-1" d="M20.74,14.31c.11.13-.1.53-.47.91s-.78.57-.91.45L31.83,28.14a1,1,0,0,0,1.38-1.36"/><path class="cls-1" d="M15.09,10C10.25,14.89,8,20.69,9.44,23.91c.51-3.07,2.66-7,6-10.76a.94.94,0,0,1,1.35,0l1.81,1.81c.12.13.53-.07.9-.45s.59-.78.47-.91l-1.81-1.81a.93.93,0,0,1,0-1.35c3.73-3.36,7.68-5.52,10.76-6C25.74,2.93,19.94,5.2,15.09,10Zm.9.9c-.65.65-1.34,1-1.54.81s.16-.89.82-1.54,1.34-1,1.54-.81S16.64,10.29,16,10.94Z"/><polygon class="cls-1" points="3.29 17.57 4.82 22.85 5.49 20.09 7.18 23.39 5.29 17.96 4.84 20.61 3.29 17.57"/><path class="cls-1" d="M6.33,24.92,2,27.44v5L6.33,35l4.37-2.52v-5Zm-.19,9.74-4-2.3V27.77l4,2.3Z"/><path class="cls-1" d="M15.19,20.54l-2.81,1.63v3.25l2.81,1.63L18,25.42V22.17Zm-.12,6.29L12.5,25.35v-3l2.57,1.48Z"/><path class="cls-1" d="M16.9,23.77l-3.66,2.12v4.22l3.66,2.12,3.67-2.12V25.89ZM16.74,32,13.41,30V26.17l3.33,1.92Z"/></svg>