<svg xmlns="http://www.w3.org/2000/svg" id="pickax_gray" viewBox="0 0 36 36"><defs><style>.cls-1{fill:#ededed}.cls-2{fill:#9d9d9c}</style></defs><path d="M8.72,13.76l2.14-2.61v0a0,0,0,0,0,0,0H9a.58.58,0,0,1-.43-.18.54.54,0,0,1-.18-.41A.61.61,0,0,1,9,9.92h3.44a.58.58,0,0,1,.42.18.58.58,0,0,1,.18.43,1.63,1.63,0,0,1-.38,1.05l-2.13,2.61v0h1.91a.58.58,0,0,1,.42.18.54.54,0,0,1,.18.41.56.56,0,0,1-.18.42.58.58,0,0,1-.42.18H9a.58.58,0,0,1-.43-.18.56.56,0,0,1-.18-.42A1.63,1.63,0,0,1,8.72,13.76Z" class="cls-1"/><path d="M20.74,14.24c.11.13-.1.54-.47.91s-.78.58-.91.46L31.83,28.07a1,1,0,0,0,1.38-1.35" class="cls-2"/><path d="M15.09,10C10.25,14.82,8,20.62,9.44,23.85c.51-3.08,2.66-7,6-10.76a.94.94,0,0,1,1.35,0l1.81,1.81c.12.12.53-.08.9-.45s.59-.78.47-.91l-1.81-1.82a.93.93,0,0,1,0-1.35C21.94,7,25.89,4.83,29,4.32,25.74,2.87,19.94,5.13,15.09,10Zm.9.89c-.65.65-1.34,1-1.54.82s.16-.89.82-1.54,1.34-1,1.54-.82S16.64,10.22,16,10.87Z" class="cls-2"/><path d="M14.12,21.09,16.69,18v0h-2.3a.71.71,0,0,1-.51-.21.71.71,0,0,1,0-1,.72.72,0,0,1,.51-.22h4.14a.74.74,0,0,1,.51.22.69.69,0,0,1,.21.51,2,2,0,0,1-.46,1.27l-2.56,3.13v0h2.3a.73.73,0,0,1,.51.21.71.71,0,0,1,0,1,.73.73,0,0,1-.51.21H14.39a.71.71,0,0,1-.51-.21.69.69,0,0,1-.21-.51A2,2,0,0,1,14.12,21.09Z" class="cls-1"/><path d="M21.36,15l2.14-2.6v0H21.58a.57.57,0,0,1-.42-.17.6.6,0,0,1,.42-1H25a.62.62,0,0,1,.6.6,1.64,1.64,0,0,1-.38,1.06l-2.13,2.61v0H25a.61.61,0,0,1,.42.17.6.6,0,0,1-.42,1H21.58a.62.62,0,0,1-.6-.6A1.64,1.64,0,0,1,21.36,15Z" class="cls-1"/></svg>