<svg id="Ebene_1" data-name="Ebene 1" xmlns="http://www.w3.org/2000/svg" viewBox="0 0 60 71"><defs><style>.cls-1{fill:#fff;}</style></defs><path class="cls-1" d="M59.82,31c-.09.31-.15.63-.27.93-.35.89-.59.93-1.42.78a15.69,15.69,0,0,1-1.68-.37c-.69-.22-1.36-.53-2-.78a.46.46,0,0,0-.4,0c-.48.37-.67.39-1.1-.05a2.54,2.54,0,0,0-1.58-.92,4.25,4.25,0,0,1-2.23-.83.64.64,0,0,0-.33-.1,8.91,8.91,0,0,1-2.8-.49c-.22-.06-.46-.07-.67-.14s-.73-.14-.93-.36a3.49,3.49,0,0,0-2-1c-.83-.19-1.64-.43-2.47-.59a2.16,2.16,0,0,0-1.54.3,38.8,38.8,0,0,1-5.44,2.41,10.48,10.48,0,0,0-3.39,2.12c-2,1.94-4,3.9-6,5.84-.81.77-1.67,1.49-2.5,2.25-.39.36-.35.43.08.74a3.53,3.53,0,0,0,1.25.6c.32.07.57.45.84.7a4.66,4.66,0,0,0,1.95,1,1.07,1.07,0,0,1,.92.84c.05.27.19.29.41.14a4.07,4.07,0,0,1,.65-.35.82.82,0,0,1,.91.14,7.55,7.55,0,0,0,2.86,1.67,3.46,3.46,0,0,1,2,1.53,2,2,0,0,1,.1,2.29,24.81,24.81,0,0,0-1.37,4.57,9.28,9.28,0,0,1-1.87,4,1.64,1.64,0,0,1-1.83.52,1,1,0,0,1-.49-.63c-.08-.75,0-1.52-.11-2.27-.15-1.29-.33-2.58-.54-3.86a1.86,1.86,0,0,0-1.14-1.38c-.23-.12-.38-.26-.35-.54a.39.39,0,0,0-.37-.49c-.15,0-.29-.11-.45-.13s-.48-.18-.42-.47c-.67-.15-1.32-.27-1.94-.46a3.92,3.92,0,0,1-.93-.53,6.64,6.64,0,0,0-1.7-1c-1.33-.49-2.62-1.09-3.92-1.66a2.38,2.38,0,0,1-.47-.38c-.36-.27-.7-.55-1.07-.8a2.16,2.16,0,0,1-.85-1.49,4.79,4.79,0,0,1-.2-1.45A7.19,7.19,0,0,1,13.37,39a25.55,25.55,0,0,1,1.4-3.42,30.38,30.38,0,0,1,1.93-2.76c.49-.69,1.33-1.15,1.45-2.11a5.45,5.45,0,0,1,.38-1.14,1.4,1.4,0,0,0-.45-1.31,1.6,1.6,0,0,1-.45-.52c-.24-.51-.42-1.07-.68-1.58a2.37,2.37,0,0,0-.65-.94,3.31,3.31,0,0,1-1.25-2.14A12.91,12.91,0,0,1,14.77,21c-.08-1-.09-1.95-.2-2.92a1.72,1.72,0,0,0-.45-.89c-.43-.45-.95-.82-1.4-1.25a4.69,4.69,0,0,1-1.39-2.06.91.91,0,0,1,.08-.63c.18-.26.16-.46-.07-.62-.72-.5-1.46-1-2.18-1.47A11.66,11.66,0,0,1,8,10.25C7.34,9.7,6.75,9.11,6.15,8.53c-.32-.32-.6-.67-.91-1a2.58,2.58,0,0,0-2-.84,9.87,9.87,0,0,1-1.72,0A2.25,2.25,0,0,1,.08,5.42c-.27-.46.18-.83.85-.69a8,8,0,0,1-.09-1,.5.5,0,0,1,.23-.36.5.5,0,0,0,.3-.56c0-.13.08-.38.12-.38.59,0,1-.63,1.62-.45.34.1.47,0,.45-.34C3.51,1,4.05.71,4.35.25c.06-.1.31-.07.62-.13A9.94,9.94,0,0,1,4.65,1.4a1,1,0,0,0,0,.85,9.38,9.38,0,0,1,.37,1.28,1.52,1.52,0,0,0,.83,1.13A28.54,28.54,0,0,1,9.14,6.34C11.08,7.6,13,9,14.87,10.27a2.88,2.88,0,0,0,.74.21c.65.18,1.29.42,1.95.55,1.41.28,2.21-.13,2.62-1.3a3.42,3.42,0,0,1,3-2.41,3.72,3.72,0,0,1,1.93-.1,1.42,1.42,0,0,1,.35.17c.69.57,1.41,1.11,2.06,1.73a3.71,3.71,0,0,1,.81,1.18,1.3,1.3,0,0,0,1.24.9c.51,0,1,0,1.52.09a1,1,0,0,1,.56.28.77.77,0,0,0,.79.22c1.09-.2,2.19-.36,3.27-.61.9-.21,1.79-.5,2.68-.79s1.84-.64,2.76-1a1.89,1.89,0,0,0,.44-.19.59.59,0,0,0,.33-.77,2.66,2.66,0,0,1,.19-2.25,1.05,1.05,0,0,0,.06-.9c-.09-.26-.23-.59.11-.72s.61.09.7.46c0,0,0,.09.15.13a6.09,6.09,0,0,0,.19-1c0-.85.64-1.25,1.24-1.65a.27.27,0,0,1,.23,0,.34.34,0,0,1,.05.26c0,.14-.1.27-.14.41-.19.56-.37,1.12-.55,1.69l.14.06c.3-.47.57-.95.9-1.4a2.24,2.24,0,0,1,1.53-1c.12,0,.27.11.4.17-.07.13-.1.36-.2.39-.37.12-.44.36-.43.7a.54.54,0,0,1-.19.38,5,5,0,0,0-1.39,3.34,11.19,11.19,0,0,1-.37,1.9,2.26,2.26,0,0,1-1.07,1.15c-1,.71-2,1.43-2.92,2.22A6.23,6.23,0,0,1,38,14.35c-1.35.31-2.72.58-4.06.87a2.87,2.87,0,0,1-2.28,2.65,23,23,0,0,1-2.76.64l-.44.13A2.64,2.64,0,0,0,31,20.71c1.29-.05,2.58-.23,3.87-.24a21.26,21.26,0,0,1,2.62.31.82.82,0,0,0,.22,0,10.69,10.69,0,0,1,3.89.54c1.5.43,3,.86,4.49,1.36s3.08,1.15,4.63,1.73a6.59,6.59,0,0,1,1,.36,1.36,1.36,0,0,1,.62.66.38.38,0,0,0,.49.31c.83-.17,1.65-.36,2.48-.55a.34.34,0,0,0,.15-.21,9.46,9.46,0,0,0,.26-.91,1.72,1.72,0,0,1,1.82-1.34A1.52,1.52,0,0,1,59,24.09c.13.72.19,1.46.27,2.19.16,1.39.31,2.79.47,4.18,0,0,0,0,.06.05Z"/><path class="cls-1" d="M40.07,70.67c-.33.14-.52,0-.6-.26-.37-1.16-.72-2.33-1.06-3.42a4.29,4.29,0,0,1-1.3.1,1.17,1.17,0,0,1-.57-1.8.76.76,0,0,0,.09-.53c-.13-.56-.3-1.11-.44-1.66a.83.83,0,0,0-.46-.65,1.16,1.16,0,0,1-.34-1.91,1.33,1.33,0,0,1,1.47,0,1.08,1.08,0,0,1,.31,1.25c-.09.22-.22.44.13.56a.61.61,0,0,0,.82-.32c.31-1.3.65-2.59.93-3.9.36-1.65.68-3.32,1-5,.1-.49.23-1,.31-1.47a.5.5,0,0,0-.15-.42,1.49,1.49,0,0,1-.4-1.94.55.55,0,0,0,.05-.4c-.1-.31-.27-.61-.37-.92a1.64,1.64,0,0,0-.95-1.25,1.11,1.11,0,0,1-.5-1.25,1.31,1.31,0,0,1,1-.94,1.14,1.14,0,0,1,1.24,1,4.69,4.69,0,0,1,0,.75.7.7,0,0,0,.69.84h.25c.1-.74.21-1.46.3-2.19a5.9,5.9,0,0,1,1.94-3.85A2,2,0,0,1,45,40.58a.8.8,0,0,1,.53.37,3.8,3.8,0,0,1,.38,2.33c-.19,2-1.06,3.73-1.5,5.61-.33,1.43-.67,2.85-1,4.28s-.59,2.84-.89,4.26c-.35,1.63-.68,3.27-1.05,4.89s-.76,3-1.11,4.56a12.36,12.36,0,0,0-.29,1.92C40,69.42,40.07,70.06,40.07,70.67Z"/><path d="M20.22,17.65l1.4-.43a.26.26,0,0,1,.34.17l.56,2.43c1.28-1.28,1.15-2.11,1.59-3.09a.32.32,0,0,1,.2-.16L26,16.35,25,18.76c.83.76.4.81-.41,1.27l1.39,1.06c.64.67,1.75.87,1.62,1l-1.73.7a.28.28,0,0,1-.37,0l-2-1.8-.6.74.59,1.43c0,.13,0,.4-.12.43l-1.23.58a.26.26,0,0,1-.33-.21l-.52-2.78c.8-.58-.36-1-.42-1.19l-.79-2A.25.25,0,0,1,20.22,17.65Z"/></svg>