<svg xmlns="http://www.w3.org/2000/svg" viewBox="0 0 77.1 104.22"><defs><style>.cls-1{fill:#fff;}</style></defs><g id="Ebene_2" data-name="Ebene 2"><g id="Ebene_2-2" data-name="Ebene 2"><path class="cls-1" d="M38.55,19.64A2.45,2.45,0,0,1,41,22a58.39,58.39,0,0,0,24.23-6.36,30.55,30.55,0,0,0-53.34,0A58.39,58.39,0,0,0,36.11,22,2.45,2.45,0,0,1,38.55,19.64Z"/><path class="cls-1" d="M66.33,17.84a60.86,60.86,0,0,1-15.56,5.44V38.84a2.45,2.45,0,1,1-4.89,0V24c-1.61.2-3.24.35-4.89.42V41.29a2.44,2.44,0,0,1-4.88,0V24.46c-1.65-.07-3.28-.22-4.89-.42v14.8a2.45,2.45,0,1,1-4.89,0V23.28a60.86,60.86,0,0,1-15.56-5.44,30.55,30.55,0,1,0,55.56,0Z"/><rect class="cls-1" x="0.21" y="90.57" width="76.69" height="0.33" rx="0.08"/><path class="cls-1" d="M4,85.08A5.53,5.53,0,0,1,1.8,84.7a3.68,3.68,0,0,1-1.34-.89A1.37,1.37,0,0,1,0,83a.56.56,0,0,1,.08-.26.67.67,0,0,1,.18-.22.32.32,0,0,1,.2-.08c.12,0,.24.09.37.25a5.77,5.77,0,0,0,.52.59,2.91,2.91,0,0,0,.94.58,4,4,0,0,0,1.57.25,3.91,3.91,0,0,0,1.72-.34,2.36,2.36,0,0,0,1.07-1A3.4,3.4,0,0,0,7,81.14a3.32,3.32,0,0,0-.37-1.66,3.07,3.07,0,0,0-1-1,6.29,6.29,0,0,0-1.3-.64q-.7-.24-1.41-.51a6.29,6.29,0,0,1-1.3-.64,2.86,2.86,0,0,1-1-1.05,3.39,3.39,0,0,1-.37-1.71,3.55,3.55,0,0,1,.39-1.76,2.94,2.94,0,0,1,1-1.07,4,4,0,0,1,1.31-.54,6.45,6.45,0,0,1,1.35-.14,7.49,7.49,0,0,1,1.17.09,9.33,9.33,0,0,1,1,.25,2.85,2.85,0,0,1,.76.35.54.54,0,0,1,.27.42.61.61,0,0,1-.06.25.69.69,0,0,1-.16.22.29.29,0,0,1-.23.1,1.1,1.1,0,0,1-.48-.18,4,4,0,0,0-.88-.38,4.47,4.47,0,0,0-1.45-.19A4.67,4.67,0,0,0,3,71.56a2.42,2.42,0,0,0-1.16.75,2.27,2.27,0,0,0-.46,1.53,2.32,2.32,0,0,0,.37,1.38,2.77,2.77,0,0,0,1,.83A8.06,8.06,0,0,0,4,76.6c.46.15.93.33,1.41.53a5.58,5.58,0,0,1,1.3.75,3.39,3.39,0,0,1,.95,1.21,5.31,5.31,0,0,1-.16,4.26,3.18,3.18,0,0,1-1.43,1.31A4.9,4.9,0,0,1,4,85.08Z"/><path class="cls-1" d="M12,85a.61.61,0,0,1-.35-.11.36.36,0,0,1-.15-.31V70.82a.37.37,0,0,1,.12-.27.54.54,0,0,1,.32-.12h3.6a4.84,4.84,0,0,1,2,.4A3.08,3.08,0,0,1,19,72.16a4.8,4.8,0,0,1,.52,2.42v.22A4.83,4.83,0,0,1,19,77.22a3.23,3.23,0,0,1-1.45,1.34,4.93,4.93,0,0,1-2,.41h-3v5.57a.36.36,0,0,1-.15.31A.62.62,0,0,1,12,85Zm.49-6.9h3a3,3,0,0,0,2.2-.8,3.32,3.32,0,0,0,.8-2.44v-.24a3.28,3.28,0,0,0-.8-2.42,3,3,0,0,0-2.2-.78h-3Z"/><path class="cls-1" d="M26.66,85.08a4.74,4.74,0,0,1-2-.42,3.19,3.19,0,0,1-1.43-1.32,4.82,4.82,0,0,1-.53-2.42V74.58a4.82,4.82,0,0,1,.53-2.42,3.19,3.19,0,0,1,1.43-1.32,4.74,4.74,0,0,1,2-.41,4.88,4.88,0,0,1,2.05.41,3.22,3.22,0,0,1,1.44,1.32,4.83,4.83,0,0,1,.52,2.42v6.34a4.83,4.83,0,0,1-.52,2.42,3.22,3.22,0,0,1-1.44,1.32A4.88,4.88,0,0,1,26.66,85.08Zm0-1a3,3,0,0,0,2.21-.78,3.24,3.24,0,0,0,.81-2.42V74.58a3.28,3.28,0,0,0-.8-2.42,3,3,0,0,0-2.22-.78,3,3,0,0,0-2.21.78,3.28,3.28,0,0,0-.79,2.42v6.34a3.28,3.28,0,0,0,.79,2.42A3,3,0,0,0,26.66,84.12Z"/><path class="cls-1" d="M42.2,85a.43.43,0,0,1-.36-.25l-.27-.45-3.12-6.1H35.7v6.36a.35.35,0,0,1-.16.31.59.59,0,0,1-.33.11.58.58,0,0,1-.35-.11.36.36,0,0,1-.15-.31V70.82a.36.36,0,0,1,.11-.27.46.46,0,0,1,.31-.12h3.42a6,6,0,0,1,2.06.34A3,3,0,0,1,42.14,72a4,4,0,0,1,.58,2.31,4.24,4.24,0,0,1-.43,2,2.9,2.9,0,0,1-1.15,1.2,4.74,4.74,0,0,1-1.64.55l3.18,6.16a.31.31,0,0,1,0,.12.38.38,0,0,1,0,.1.44.44,0,0,1-.08.25.91.91,0,0,1-.2.19A.47.47,0,0,1,42.2,85Zm-6.5-7.72h2.85a3.61,3.61,0,0,0,2.29-.68,2.72,2.72,0,0,0,.89-2.28,2.65,2.65,0,0,0-.89-2.24,3.67,3.67,0,0,0-2.29-.68H35.7Z"/><path class="cls-1" d="M53.49,85a.44.44,0,0,1-.36-.25l-.27-.45-3.12-6.1H47v6.36a.35.35,0,0,1-.16.31.57.57,0,0,1-.33.11.58.58,0,0,1-.35-.11.36.36,0,0,1-.15-.31V70.82a.4.4,0,0,1,.11-.27.46.46,0,0,1,.31-.12h3.42a6,6,0,0,1,2.06.34A3,3,0,0,1,53.43,72,4,4,0,0,1,54,74.28a4.24,4.24,0,0,1-.43,2,2.9,2.9,0,0,1-1.15,1.2,4.74,4.74,0,0,1-1.64.55L54,84.24a.31.31,0,0,1,.05.12.38.38,0,0,1,0,.1.44.44,0,0,1-.08.25.91.91,0,0,1-.2.19A.47.47,0,0,1,53.49,85ZM47,77.26h2.85a3.61,3.61,0,0,0,2.29-.68A2.72,2.72,0,0,0,53,74.3a2.65,2.65,0,0,0-.89-2.24,3.67,3.67,0,0,0-2.29-.68H47Z"/><path class="cls-1" d="M56.7,85a.57.57,0,0,1-.25-.06.57.57,0,0,1-.21-.15.31.31,0,0,1-.08-.23.25.25,0,0,1,0-.12l4.23-13.74a.43.43,0,0,1,.22-.27.68.68,0,0,1,.34-.08.76.76,0,0,1,.35.09.42.42,0,0,1,.23.26L65.74,84.4a.5.5,0,0,1,0,.12.32.32,0,0,1-.09.21.62.62,0,0,1-.22.17.6.6,0,0,1-.27.06.48.48,0,0,1-.24-.07.34.34,0,0,1-.15-.23l-1-3.16H58.09l-1,3.16a.35.35,0,0,1-.16.23A.6.6,0,0,1,56.7,85Zm1.67-4.38h5.16L61,72.09Z"/><path class="cls-1" d="M69.3,85a.61.61,0,0,1-.35-.11.36.36,0,0,1-.15-.31V70.84a.35.35,0,0,1,.15-.33.67.67,0,0,1,.35-.08.52.52,0,0,1,.33.12,1.35,1.35,0,0,1,.26.32,2.72,2.72,0,0,1,.2.37l5.77,11.35V70.82a.32.32,0,0,1,.15-.29.58.58,0,0,1,.35-.1.56.56,0,0,1,.33.1.31.31,0,0,1,.16.29V84.54a.35.35,0,0,1-.16.31.57.57,0,0,1-.33.11.53.53,0,0,1-.42-.25,3.81,3.81,0,0,1-.3-.49L69.8,72.77V84.54a.37.37,0,0,1-.16.31A.62.62,0,0,1,69.3,85Z"/><path class="cls-1" d="M.49,104.11a.28.28,0,0,1-.18-.06.21.21,0,0,1-.07-.16v-7.6a.19.19,0,0,1,.07-.16.28.28,0,0,1,.18-.06.29.29,0,0,1,.19.06.19.19,0,0,1,.07.16v5.29L3.46,99.2a.24.24,0,0,1,.26,0,.3.3,0,0,1,.1.07.33.33,0,0,1,0,.14s0,.06,0,.09a.13.13,0,0,1-.07.08L2.17,101l1.88,2.77a.15.15,0,0,1,0,.11.2.2,0,0,1,0,.13.32.32,0,0,1-.1.1.28.28,0,0,1-.13,0,.19.19,0,0,1-.17-.1L1.79,101.3l-1,.91v1.68a.21.21,0,0,1-.07.16A.29.29,0,0,1,.49,104.11Z"/><path class="cls-1" d="M5.67,97.6a.41.41,0,0,1-.39-.39.36.36,0,0,1,.12-.27.45.45,0,0,1,.27-.1.41.41,0,0,1,.28.1.35.35,0,0,1,.11.27.36.36,0,0,1-.11.27A.35.35,0,0,1,5.67,97.6Zm0,6.51a.25.25,0,0,1-.17-.06.23.23,0,0,1-.08-.16V99.37a.19.19,0,0,1,.08-.15.25.25,0,0,1,.17-.06.29.29,0,0,1,.19.06.19.19,0,0,1,.08.15v4.52a.23.23,0,0,1-.08.16A.29.29,0,0,1,5.67,104.11Z"/><path class="cls-1" d="M8.18,104.11a.24.24,0,0,1-.17-.06.23.23,0,0,1-.08-.16v-7.6A.19.19,0,0,1,8,96.13a.24.24,0,0,1,.17-.06.29.29,0,0,1,.19.06.19.19,0,0,1,.08.16v7.6a.23.23,0,0,1-.08.16A.29.29,0,0,1,8.18,104.11Z"/><path class="cls-1" d="M12,104.11a1.73,1.73,0,0,1-1.18-.35,1.45,1.45,0,0,1-.41-1.14V97a.21.21,0,0,1,.08-.17.37.37,0,0,1,.17,0,.41.41,0,0,1,.19,0,.21.21,0,0,1,.07.17v2.18h1.4a.18.18,0,0,1,.14.06.24.24,0,0,1,.06.17.2.2,0,0,1-.06.15.16.16,0,0,1-.14.07h-1.4v3a1,1,0,0,0,.25.78,1.21,1.21,0,0,0,.83.23h.27a.24.24,0,0,1,.18.07.27.27,0,0,1,0,.34.24.24,0,0,1-.18.07Z"/><path class="cls-1" d="M15.22,104.18a2.62,2.62,0,0,1-.84-.12,1.76,1.76,0,0,1-.55-.29.43.43,0,0,1-.2-.31.19.19,0,0,1,0-.1.36.36,0,0,1,.07-.1.18.18,0,0,1,.09,0,.39.39,0,0,1,.24.12,1.74,1.74,0,0,0,.4.25,1.84,1.84,0,0,0,.75.13,1.32,1.32,0,0,0,.89-.24.79.79,0,0,0,.26-.57.93.93,0,0,0-.18-.6,1.32,1.32,0,0,0-.49-.33l-.64-.2a4.29,4.29,0,0,1-.63-.23,1.18,1.18,0,0,1-.49-.39,1.06,1.06,0,0,1-.19-.68,1.41,1.41,0,0,1,.16-.64,1.46,1.46,0,0,1,.52-.53,1.79,1.79,0,0,1,.92-.21,2.62,2.62,0,0,1,.64.07,1.9,1.9,0,0,1,.51.17c.13.08.2.15.2.23a.21.21,0,0,1,0,.11.3.3,0,0,1-.07.11.15.15,0,0,1-.12,0,.46.46,0,0,1-.21-.07,1.8,1.8,0,0,0-.36-.14,1.73,1.73,0,0,0-.54-.07,1.23,1.23,0,0,0-.65.15.81.81,0,0,0-.36.35.93.93,0,0,0-.11.41.65.65,0,0,0,.19.5,1.36,1.36,0,0,0,.49.27l.63.2a3.27,3.27,0,0,1,.64.25,1.29,1.29,0,0,1,.49.44,1.36,1.36,0,0,1,.18.76,1.15,1.15,0,0,1-.43.94A1.86,1.86,0,0,1,15.22,104.18Z"/><path class="cls-1" d="M23.14,104.22a2.51,2.51,0,0,1-1.27-.3,2.14,2.14,0,0,1-.8-.81,2.22,2.22,0,0,1-.28-1.1,2,2,0,0,1,.22-1,2.18,2.18,0,0,1,.55-.69,2.32,2.32,0,0,1,.69-.43,6.38,6.38,0,0,1-.6-.84A1.94,1.94,0,0,1,21.37,98a1.68,1.68,0,0,1,.25-1,1.55,1.55,0,0,1,.67-.6,2,2,0,0,1,.9-.21,1.91,1.91,0,0,1,.92.19,1.69,1.69,0,0,1,.53.42.64.64,0,0,1,.18.35.21.21,0,0,1-.07.17.24.24,0,0,1-.18.07c-.06,0-.11,0-.17-.11s-.13-.16-.22-.26a1.13,1.13,0,0,0-.36-.27,1.41,1.41,0,0,0-.59-.11,1.26,1.26,0,0,0-.95.37,1.38,1.38,0,0,0-.35,1,1.74,1.74,0,0,0,.14.69,2.65,2.65,0,0,0,.36.6c.14.19.3.37.46.56l2.25,2.47a4.17,4.17,0,0,0,.3-1.1c0-.38.07-.69.08-.94a.28.28,0,0,1,.06-.2.24.24,0,0,1,.19-.06.18.18,0,0,1,.16.08.35.35,0,0,1,.06.23c0,.13,0,.33,0,.59a6,6,0,0,1-.14.85,3.66,3.66,0,0,1-.34.92l1,1.07,0,.08a.13.13,0,0,1,0,.06.18.18,0,0,1-.07.15.21.21,0,0,1-.16.07l-.08,0-.08-.06-.9-1a2.63,2.63,0,0,1-.82.77A2.37,2.37,0,0,1,23.14,104.22Zm.08-.49a1.79,1.79,0,0,0,1-.27,2,2,0,0,0,.65-.67l-2.35-2.52a5.32,5.32,0,0,0-.53.35,2.08,2.08,0,0,0-.49.53,1.42,1.42,0,0,0-.2.8,1.76,1.76,0,0,0,.22.87,1.62,1.62,0,0,0,.64.66A2.09,2.09,0,0,0,23.22,103.73Z"/><path class="cls-1" d="M32.35,104.18a2.28,2.28,0,0,1-1.11-.25,1.57,1.57,0,0,1-.65-.7,2.25,2.25,0,0,1-.22-1V101a2.15,2.15,0,0,1,.22-1,1.52,1.52,0,0,1,.65-.7,2.17,2.17,0,0,1,1.11-.25,2.12,2.12,0,0,1,.75.11,1.79,1.79,0,0,1,.5.25.39.39,0,0,1,.18.28.3.3,0,0,1,0,.11.22.22,0,0,1-.09.1.16.16,0,0,1-.12,0,.36.36,0,0,1-.21-.11,1.45,1.45,0,0,0-.34-.2,1.4,1.4,0,0,0-.61-.1,1.46,1.46,0,0,0-1.1.39,1.5,1.5,0,0,0-.38,1.07v1.2a1.34,1.34,0,0,0,1.49,1.45,1.61,1.61,0,0,0,.65-.1,1.44,1.44,0,0,0,.34-.21.37.37,0,0,1,.23-.11.17.17,0,0,1,.12,0l.08.09a.19.19,0,0,1,0,.12q0,.1-.18.27a1.68,1.68,0,0,1-.52.27A2.6,2.6,0,0,1,32.35,104.18Z"/><path class="cls-1" d="M35.59,104.11a.28.28,0,0,1-.18-.06.26.26,0,0,1-.07-.16V99.37a.21.21,0,0,1,.07-.15.28.28,0,0,1,.18-.06.29.29,0,0,1,.19.06.2.2,0,0,1,.06.15v.54a2.06,2.06,0,0,1,.33-.4,1.63,1.63,0,0,1,.48-.3,1.57,1.57,0,0,1,.63-.11h.38a.2.2,0,0,1,.16.07.27.27,0,0,1,0,.34.2.2,0,0,1-.16.07h-.38a1.41,1.41,0,0,0-.68.18,1.44,1.44,0,0,0-.54.53,1.54,1.54,0,0,0-.2.82v2.78a.23.23,0,0,1-.08.16A.29.29,0,0,1,35.59,104.11Z"/><path class="cls-1" d="M41,104.18a2.51,2.51,0,0,1-1.13-.24,1.89,1.89,0,0,1-.77-.68,1.82,1.82,0,0,1-.29-1V101A1.75,1.75,0,0,1,39,100a2.1,2.1,0,0,1,.7-.69,1.89,1.89,0,0,1,1-.25,1.92,1.92,0,0,1,.95.24,2,2,0,0,1,.7.68,1.78,1.78,0,0,1,.27,1,.92.92,0,0,1-.14.56.53.53,0,0,1-.33.21,2.74,2.74,0,0,1-.43,0H39.29v.44a1.3,1.3,0,0,0,.48,1.06,1.87,1.87,0,0,0,1.21.39,1.66,1.66,0,0,0,.66-.1,1.9,1.9,0,0,0,.36-.21.36.36,0,0,1,.23-.1.16.16,0,0,1,.12,0,.28.28,0,0,1,.09.1.23.23,0,0,1,0,.11c0,.07-.06.15-.18.26a1.68,1.68,0,0,1-.52.27A2.78,2.78,0,0,1,41,104.18Zm-1.67-2.81h2.23a1,1,0,0,0,.48-.07.35.35,0,0,0,.11-.3,1.53,1.53,0,0,0-.17-.69,1.49,1.49,0,0,0-.49-.54,1.37,1.37,0,0,0-.75-.21,1.33,1.33,0,0,0-.71.19,1.37,1.37,0,0,0-.7,1.19Z"/><path class="cls-1" d="M45.89,104.18a1.68,1.68,0,0,1-.92-.27,2.16,2.16,0,0,1-.69-.72,1.91,1.91,0,0,1-.26-1V101a1.88,1.88,0,0,1,.26-1,2,2,0,0,1,.69-.7,1.79,1.79,0,0,1,.94-.25,1.54,1.54,0,0,1,.88.24,1.79,1.79,0,0,1,.52.55v-3.6a.17.17,0,0,1,.08-.16.28.28,0,0,1,.18-.06.24.24,0,0,1,.18.06.19.19,0,0,1,.07.16v7.6a.21.21,0,0,1-.07.16.24.24,0,0,1-.18.06.27.27,0,0,1-.17-.06.23.23,0,0,1-.08-.16v-.51a1.4,1.4,0,0,1-.55.56A1.69,1.69,0,0,1,45.89,104.18Zm0-.49a1.23,1.23,0,0,0,.71-.2,1.7,1.7,0,0,0,.49-.47.82.82,0,0,0,.18-.43V101a1.45,1.45,0,0,0-.2-.77,1.36,1.36,0,0,0-.51-.5,1.41,1.41,0,0,0-.66-.17,1.22,1.22,0,0,0-.69.21,1.64,1.64,0,0,0-.52.53,1.34,1.34,0,0,0-.19.7v1.22a1.37,1.37,0,0,0,.19.7,1.68,1.68,0,0,0,.51.55A1.21,1.21,0,0,0,45.93,103.69Z"/><path class="cls-1" d="M51.74,104.18a2.51,2.51,0,0,1-1.13-.24,1.89,1.89,0,0,1-.77-.68,1.82,1.82,0,0,1-.29-1V101a1.75,1.75,0,0,1,.27-.95,2.13,2.13,0,0,1,.71-.69,1.86,1.86,0,0,1,1-.25,1.91,1.91,0,0,1,.94.24,2,2,0,0,1,.7.68,1.78,1.78,0,0,1,.27,1,1,1,0,0,1-.13.56.58.58,0,0,1-.34.21,2.74,2.74,0,0,1-.43,0H50.07v.44a1.3,1.3,0,0,0,.48,1.06,1.87,1.87,0,0,0,1.21.39,1.63,1.63,0,0,0,.66-.1,1.9,1.9,0,0,0,.36-.21.36.36,0,0,1,.23-.1.16.16,0,0,1,.12,0,.28.28,0,0,1,.09.1.23.23,0,0,1,0,.11c0,.07-.06.15-.18.26a1.68,1.68,0,0,1-.52.27A2.78,2.78,0,0,1,51.74,104.18Zm-1.67-2.81h2.24a1,1,0,0,0,.47-.07.35.35,0,0,0,.11-.3,1.41,1.41,0,0,0-.17-.69,1.49,1.49,0,0,0-.49-.54,1.43,1.43,0,0,0-1.46,0,1.37,1.37,0,0,0-.7,1.19Z"/><path class="cls-1" d="M55.24,104.11a.24.24,0,0,1-.17-.06.23.23,0,0,1-.08-.16V99.37a.19.19,0,0,1,.08-.15.24.24,0,0,1,.17-.06.29.29,0,0,1,.19.06.21.21,0,0,1,.07.15v.52a1.83,1.83,0,0,1,.53-.55,1.49,1.49,0,0,1,.87-.24,1.76,1.76,0,0,1,.94.25,2,2,0,0,1,.68.7,1.79,1.79,0,0,1,.26,1v2.87a.19.19,0,0,1-.08.17.27.27,0,0,1-.18,0,.28.28,0,0,1-.17,0,.21.21,0,0,1-.08-.17V101a1.35,1.35,0,0,0-.2-.7,1.72,1.72,0,0,0-.51-.53,1.23,1.23,0,0,0-.7-.21,1.33,1.33,0,0,0-.64.17,1.41,1.41,0,0,0-.71,1.27v2.87a.23.23,0,0,1-.08.16A.29.29,0,0,1,55.24,104.11Z"/><path class="cls-1" d="M62.2,104.11a1.73,1.73,0,0,1-1.18-.35,1.42,1.42,0,0,1-.41-1.14V97a.21.21,0,0,1,.08-.17.37.37,0,0,1,.17,0,.35.35,0,0,1,.18,0,.19.19,0,0,1,.08.17v2.18h1.4a.2.2,0,0,1,.14.06.24.24,0,0,1,.06.17.2.2,0,0,1-.06.15.17.17,0,0,1-.14.07h-1.4v3a1,1,0,0,0,.25.78,1.21,1.21,0,0,0,.83.23h.27a.21.21,0,0,1,.17.07.24.24,0,0,1,0,.34.21.21,0,0,1-.17.07Z"/><path class="cls-1" d="M64.38,97.6a.38.38,0,0,1-.28-.12.37.37,0,0,1-.12-.27.36.36,0,0,1,.12-.27.45.45,0,0,1,.28-.1.41.41,0,0,1,.27.1.36.36,0,0,1,.12.27.37.37,0,0,1-.12.27A.34.34,0,0,1,64.38,97.6Zm0,6.51a.28.28,0,0,1-.18-.06.23.23,0,0,1-.08-.16V99.37a.19.19,0,0,1,.08-.15.28.28,0,0,1,.18-.06.31.31,0,0,1,.19.06.18.18,0,0,1,.07.15v4.52a.21.21,0,0,1-.07.16A.31.31,0,0,1,64.38,104.11Z"/><path class="cls-1" d="M67.65,104.18a1.64,1.64,0,0,1-1-.34,1.28,1.28,0,0,1-.42-1,1.17,1.17,0,0,1,.31-.86,1.78,1.78,0,0,1,.86-.42,6.12,6.12,0,0,1,1.28-.12h.57v-.28a2.28,2.28,0,0,0-.13-.72,1.33,1.33,0,0,0-.42-.59,1.25,1.25,0,0,0-.78-.23,1.75,1.75,0,0,0-.55.07,1.39,1.39,0,0,0-.34.14.4.4,0,0,1-.21.08.2.2,0,0,1-.17-.1.32.32,0,0,1-.06-.18q0-.12.21-.24a1.86,1.86,0,0,1,.52-.17,2.7,2.7,0,0,1,.63-.07,1.72,1.72,0,0,1,1.07.29,1.67,1.67,0,0,1,.57.74,2.88,2.88,0,0,1,.17,1v2.78a.21.21,0,0,1-.07.16.24.24,0,0,1-.18.06.28.28,0,0,1-.18-.06.21.21,0,0,1-.07-.16v-.51a3,3,0,0,1-.66.55A1.65,1.65,0,0,1,67.65,104.18Zm.08-.46a1.54,1.54,0,0,0,.71-.19,1.91,1.91,0,0,0,.56-.45.84.84,0,0,0,.22-.5v-.77H68.7a7.33,7.33,0,0,0-1,0,1.59,1.59,0,0,0-.74.27.72.72,0,0,0-.28.64.86.86,0,0,0,.29.72A1.17,1.17,0,0,0,67.73,103.72Z"/><path class="cls-1" d="M71.93,104.11a.26.26,0,0,1-.18-.06.23.23,0,0,1-.08-.16v-7.6a.19.19,0,0,1,.08-.16.3.3,0,0,1,.36,0,.19.19,0,0,1,.08.16v7.6a.23.23,0,0,1-.08.16A.26.26,0,0,1,71.93,104.11Z"/><path class="cls-1" d="M75.46,104.18a2.55,2.55,0,0,1-.83-.12,1.65,1.65,0,0,1-.55-.29.4.4,0,0,1-.2-.31.36.36,0,0,1,0-.1.39.39,0,0,1,.08-.1.18.18,0,0,1,.09,0,.39.39,0,0,1,.24.12,1.54,1.54,0,0,0,.4.25,1.78,1.78,0,0,0,.74.13,1.3,1.3,0,0,0,.89-.24.77.77,0,0,0,.27-.57.88.88,0,0,0-.19-.6,1.18,1.18,0,0,0-.49-.33l-.63-.2a4.88,4.88,0,0,1-.64-.23,1.25,1.25,0,0,1-.49-.39,1.12,1.12,0,0,1-.19-.68,1.43,1.43,0,0,1,.17-.64,1.39,1.39,0,0,1,.52-.53,1.77,1.77,0,0,1,.92-.21,2.67,2.67,0,0,1,.64.07,1.82,1.82,0,0,1,.5.17c.14.08.2.15.2.23a.3.3,0,0,1,0,.11.31.31,0,0,1-.08.11.13.13,0,0,1-.12,0,.46.46,0,0,1-.21-.07,1.59,1.59,0,0,0-.36-.14,1.62,1.62,0,0,0-.53-.07,1.29,1.29,0,0,0-.66.15.84.84,0,0,0-.35.35.82.82,0,0,0-.11.41.68.68,0,0,0,.18.5,1.36,1.36,0,0,0,.49.27l.64.2a3.45,3.45,0,0,1,.63.25,1.22,1.22,0,0,1,.49.44,1.28,1.28,0,0,1,.19.76,1.15,1.15,0,0,1-.43.94A1.89,1.89,0,0,1,75.46,104.18Z"/></g></g></svg>