<svg xmlns="http://www.w3.org/2000/svg" id="tokens_gray" viewBox="0 0 36 36"><defs><style>.cls-1{fill:#9d9d9c}.cls-2{fill:#ffed00}</style></defs><path d="M30.37,15.48s0,.09,0,.15c0,2.07-4.94,3.75-11,3.75a21.75,21.75,0,0,1-9.2-1.69V19c1.2,1.91,5.67,3.31,11,3.31s9.81-1.4,11-3.31V17A4.71,4.71,0,0,0,30.37,15.48Z" class="cls-1"/><path d="M21.1,24.44c-5.29,0-9.72-1.37-11-3.25l0,0v2c1.2,1.91,5.67,3.31,11,3.31s9.81-1.4,11-3.31v-2l0,0C30.81,23.07,26.38,24.44,21.1,24.44Z" class="cls-1"/><path d="M21.1,28.65c-5.29,0-9.72-1.37-11-3.25l0,.06v2c1.2,1.91,5.67,3.31,11,3.31s9.81-1.4,11-3.31v-2l0-.06C30.81,27.28,26.38,28.65,21.1,28.65Z" class="cls-1"/><path d="M21.2,15.87c-5.34,0-9.81-1.4-11-3.31v-2a3.34,3.34,0,0,1,.59-.68c-3.44.5-6.09,1.62-7,3v2c1.2,1.91,5.67,3.31,11,3.31,4.67,0,8.67-1.07,10.41-2.61A28.44,28.44,0,0,1,21.2,15.87Z" class="cls-1"/><path d="M21.1,5.19c-5.34,0-9.81,1.41-11,3.31v2c1.2,1.91,5.67,3.31,11,3.31s9.81-1.4,11-3.31v-2C30.91,6.6,26.44,5.19,21.1,5.19Zm3.32,5-4-1.27-.64.48,1.12,1.21L17.73,11,14.12,7.05l3.15-.38,1.46,1.59c.38-.44,1.32-1.35,1.9-2l3.76-.45L21.9,7.89l6.24,1.82Z" class="cls-1"/><path d="M17.81,18.3a1.21,1.21,0,0,0-1.19,1.22,1.22,1.22,0,0,0,1.21,1.2h8A1.22,1.22,0,0,0,27,19.52,1.2,1.2,0,0,0,25.8,18.3Z" class="cls-2"/><path d="M20.59,23.5a1.22,1.22,0,0,0,2.43,0v-8a1.22,1.22,0,0,0-2.43,0Z" class="cls-2"/></svg>